<svg id="Layer_1" data-name="Layer 1" xmlns="http://www.w3.org/2000/svg" viewBox="0 0 471.93 352.46"><defs><style>.cls-1{fill:#fecc5c;}.cls-1,.cls-15,.cls-17,.cls-18,.cls-9{stroke:#231f20;stroke-miterlimit:10;}.cls-2{font-size:27px;}.cls-16,.cls-19,.cls-2{fill:#231f20;}.cls-10,.cls-2{font-family:MyriadPro-Regular, Myriad Pro;}.cls-3{letter-spacing:0.01em;}.cls-4{letter-spacing:-0.01em;}.cls-5{letter-spacing:0em;}.cls-6{letter-spacing:0em;}.cls-7{letter-spacing:-0.03em;}.cls-8{letter-spacing:0em;}.cls-9{fill:#fc4e2a;}.cls-10{font-size:30px;fill:#f1f2f2;}.cls-11{letter-spacing:-0.02em;}.cls-12{letter-spacing:-0.01em;}.cls-13{letter-spacing:0.02em;}.cls-14{letter-spacing:0.01em;}.cls-15,.cls-17{fill:none;stroke-width:4px;}.cls-15{stroke-linecap:round;}.cls-18{fill:#800026;stroke-width:3px;}.cls-19{font-size:20px;font-family:mononokiNerdFontComplete-Bold, mononoki Nerd Font;font-weight:700;}</style></defs><title>SpinW_layout</title><rect class="cls-1" x="144.62" y="256.81" width="182.68" height="63.69" rx="12" ry="12"/><text class="cls-2" transform="translate(187.23 280.7)">E<tspan class="cls-3" x="13.28" y="0">x</tspan><tspan class="cls-4" x="26.14" y="0">t</tspan><tspan x="34.91" y="0">e</tspan><tspan class="cls-5" x="48.44" y="0">r</tspan><tspan class="cls-6" x="57.37" y="0">nal </tspan><tspan class="cls-7" x="-6.4" y="32.4">F</tspan><tspan x="5.8" y="32.4">un</tspan><tspan class="cls-3" x="35.67" y="32.4">c</tspan><tspan class="cls-8" x="48.11" y="32.4">tions</tspan></text><rect class="cls-9" x="20.96" y="139.5" width="182.68" height="63.69" rx="12" ry="12"/><text class="cls-10" transform="translate(48.33 180.15)"><tspan class="cls-11">P</tspan><tspan class="cls-12" x="15.48" y="0">r</tspan><tspan x="24.99" y="0">ope</tspan><tspan class="cls-13" x="73.56" y="0">r</tspan><tspan x="84.09" y="0">ties</tspan></text><rect class="cls-9" x="268.28" y="139.5" width="182.68" height="63.69" rx="12" ry="12"/><text class="cls-10" transform="translate(304.03 180.15)"><tspan class="cls-14">M</tspan><tspan x="24.3" y="0">ethods</tspan></text><line class="cls-15" x1="327.3" y1="33.34" x2="359.68" y2="33.34"/><line class="cls-16" x1="112.03" y1="33.34" x2="111.92" y2="139.5"/><line class="cls-17" x1="112.03" y1="33.34" x2="111.94" y2="125.38"/><polygon class="cls-16" points="111.92 139.5 103.81 119.59 111.94 124.32 120.07 119.61 111.92 139.5"/><line class="cls-15" x1="144.46" y1="33.34" x2="112.03" y2="33.34"/><rect class="cls-18" x="144.62" y="1.5" width="182.68" height="63.69" rx="12" ry="12"/><text class="cls-10" transform="translate(162.96 42.15)">SpinW class</text><text class="cls-19" transform="translate(168.58 89.9)">handle class</text><text class="cls-19" transform="translate(0 225.57)">obj.property = value</text><text class="cls-19" transform="translate(247.32 225.57)">obj.method(varargin)</text><text class="cls-19" transform="translate(118.04 344.57)">sw_FuncName(varargin)</text><line class="cls-16" x1="359.68" y1="33.34" x2="359.57" y2="139.5"/><line class="cls-17" x1="359.68" y1="33.34" x2="359.58" y2="125.38"/><polygon class="cls-16" points="359.57 139.5 351.46 119.59 359.58 124.32 367.72 119.61 359.57 139.5"/></svg>